<svg width="21" height="15" viewBox="0 0 21 15" fill="none" xmlns="http://www.w3.org/2000/svg">
<path d="M12.8334 13.3334C12.8334 12.9834 12.9501 12.7501 13.1834 12.5167L19.0168 6.68338C19.4834 6.21671 20.1834 6.21671 20.6501 6.68338C21.1168 7.15005 21.1168 7.85005 20.6501 8.31672L14.8167 14.1501C14.3501 14.6168 13.6501 14.6168 13.1834 14.1501C12.9501 13.9167 12.8334 13.6834 12.8334 13.3334Z" fill="#5A1E90"/>
<path d="M12.8334 1.66667C12.8334 1.31667 12.9501 1.08334 13.1834 0.850002C13.6501 0.383333 14.3501 0.383333 14.8167 0.850002L20.6501 6.68338C21.1168 7.15005 21.1168 7.85005 20.6501 8.31672C20.1834 8.78339 19.4834 8.78338 19.0168 8.31671L13.1834 2.48334C12.9501 2.25001 12.8334 2.01667 12.8334 1.66667Z" fill="#5A1E90"/>
<path d="M0 7.50005C3.05981e-08 6.80004 0.46667 6.33337 1.16667 6.33337L19.8334 6.33337C20.5334 6.33337 21.0001 6.80004 21.0001 7.50005C21.0001 8.20005 20.5334 8.66672 19.8334 8.66672L1.16667 8.66672C0.46667 8.66672 -3.05981e-08 8.20005 0 7.50005Z" fill="#5A1E90"/>
</svg>
